<svg width="16" height="28" viewBox="0 0 16 28" fill="none" xmlns="http://www.w3.org/2000/svg">
<path d="M13.1074 27.0806C13.3528 27.3446 13.7055 27.5 14.1043 27.5C14.9018 27.5 15.5 26.8786 15.5 26.0708C15.5 25.6824 15.362 25.3096 15.1012 25.061L3.93558 14L15.1012 2.93901C15.362 2.69045 15.5 2.30207 15.5 1.92923C15.5 1.1214 14.9018 0.5 14.1043 0.5C13.7055 0.5 13.3528 0.655351 13.1074 0.919447L0.960123 12.9591C0.668712 13.2232 0.5 13.6116 0.5 14C0.5 14.4039 0.668712 14.7612 0.960123 15.0409L13.1074 27.0806Z" fill="#242429"/>
</svg>
