<svg width="30" height="10" viewBox="0 0 30 10" fill="none" xmlns="http://www.w3.org/2000/svg">
<ellipse cx="15" cy="5" rx="15" ry="5" fill="#B3B3B3"/>
<path d="M14.1201 3.30674L11.5973 5.07092C11.1945 5.35261 11.0875 5.90289 11.3553 6.31501C11.5235 6.57376 11.8112 6.72987 12.1198 6.72987H17.8257C18.1618 6.72987 18.4684 6.53821 18.6157 6.23612C18.802 5.85398 18.6881 5.39328 18.3451 5.14203L15.8662 3.32596C15.3482 2.94652 14.6462 2.93879 14.1201 3.30674Z" fill="white"/>
<path d="M4.63568 5.7773L5.00332 6.00355C5.16651 6.10397 5.34603 6.17505 5.53374 6.21355C5.95292 6.29954 6.3891 6.21842 6.74935 5.9875L7.6875 5.38612L10.125 3.46304L12.1104 1.76608C12.2366 1.65825 12.213 1.45689 12.0653 1.38116C12.0228 1.35935 11.9746 1.35113 11.9273 1.3576L9.1875 1.73227L6.89908 2.35816C6.55063 2.45347 6.21298 2.58459 5.89154 2.74943L4.5286 3.44837C4.26857 3.58172 4.06637 3.80567 3.96019 4.07793C3.82743 4.41836 3.8576 4.80082 4.04211 5.11622L4.12089 5.25089C4.2467 5.46594 4.42349 5.64673 4.63568 5.7773Z" fill="white"/>
<path d="M25.3643 5.7773L24.9967 6.00355C24.8335 6.10397 24.654 6.17505 24.4663 6.21355C24.0471 6.29954 23.6109 6.21842 23.2506 5.9875L22.3125 5.38612L19.875 3.46304L17.8896 1.76608C17.7634 1.65825 17.787 1.45689 17.9347 1.38116C17.9772 1.35935 18.0254 1.35113 18.0727 1.3576L20.8125 1.73227L23.1009 2.35816C23.4494 2.45347 23.787 2.58459 24.1085 2.74943L25.4714 3.44837C25.7314 3.58172 25.9336 3.80567 26.0398 4.07793C26.1726 4.41836 26.1424 4.80082 25.9579 5.11622L25.8791 5.25089C25.7533 5.46594 25.5765 5.64673 25.3643 5.7773Z" fill="white"/>
</svg>
