<svg width="200" height="19" viewBox="0 0 200 19" fill="none" xmlns="http://www.w3.org/2000/svg">
<path d="M0 0.288086H10.8186V4.18279H4.1832V7.42837H10.0974V11.3231H4.1832V14.6408H11.1071V18.5355H0V0.288086Z" fill="white"/>
<path d="M37.288 9.3036L43.3464 18.6076H38.442L34.5473 12.4771L30.6526 18.6076H25.7482L31.8066 9.3036L26.0367 0.36021H30.9411L34.6194 6.27439L38.2256 0.288086H43.1301L37.288 9.3036Z" fill="white"/>
<path d="M58.7809 18.6082V0.288677C59.7907 0.288677 62.9641 0.216553 64.4066 0.216553C69.9602 0.216553 71.8354 3.10152 71.8354 6.27498C71.8354 9.52056 69.3111 12.4055 65.0557 12.4055C64.6951 12.4055 63.6854 12.4055 63.0363 12.3334V18.5361H58.7809V18.6082ZM62.9641 4.2555V8.4387C63.5411 8.51082 64.2624 8.58295 64.8394 8.58295C65.9212 8.58295 67.2916 8.07808 67.2916 6.3471C67.2916 4.76037 66.2097 4.2555 64.7672 4.2555C64.2624 4.18338 63.8296 4.18338 62.9641 4.2555Z" fill="white"/>
<path d="M96.3579 0C101.911 0 106.095 3.60621 106.095 9.44826C106.095 15.0018 101.911 18.8965 96.3579 18.8965C90.8044 18.8965 86.6212 15.2903 86.6212 9.44826C86.6212 4.1832 90.5159 0 96.3579 0ZM96.3579 15.0018C99.8199 15.0018 101.623 12.5496 101.623 9.44826C101.623 6.13055 99.315 3.8947 96.3579 3.8947C93.3287 3.8947 91.0929 6.05843 91.0929 9.44826C91.0929 12.6217 93.473 15.0018 96.3579 15.0018Z" fill="white"/>
<path d="M136.819 16.8049C135.738 18.031 133.357 18.8965 130.833 18.8965C125.135 18.8965 121.241 15.1461 121.241 9.44826C121.241 4.1832 124.486 0 130.833 0C133.285 0 135.305 0.865489 136.459 1.87523L134.584 5.04869C133.574 4.4717 132.564 3.8947 130.833 3.8947C128.02 3.8947 125.712 5.84205 125.712 9.44826C125.712 12.6938 127.948 15.0018 131.266 15.0018C132.564 15.0018 134.007 14.5691 135.233 13.7036L136.819 16.8049Z" fill="white"/>
<path d="M158.024 0.288086H161.774L169.347 18.6076H164.876L163.361 14.785H156.148L154.634 18.6076H150.451L158.024 0.288086ZM157.735 10.8182H161.846L159.827 5.62527L157.735 10.8182Z" fill="white"/>
<path d="M184.782 18.6082V0.288677C185.791 0.288677 190.48 0.216553 190.984 0.216553C195.961 0.216553 197.764 2.66877 197.764 6.0586C197.764 9.44844 195.672 10.8188 194.663 11.3237L200 18.5361H194.951L190.48 12.117H188.965V18.5361H184.782V18.6082ZM188.965 4.2555V8.29445H190.48C192.066 8.29445 193.365 7.71746 193.365 6.20285C193.365 5.19312 192.86 4.18338 190.84 4.18338C190.191 4.18338 189.83 4.18338 188.965 4.2555Z" fill="white"/>
</svg>
