<svg width="200" height="19" viewBox="0 0 200 19" fill="none" xmlns="http://www.w3.org/2000/svg">
<path d="M0 0.289062H10.8186V4.18376H4.1832V7.42935H10.0974V11.324H4.1832V14.6418H11.1071V18.5365H0V0.289062Z" fill="#282828"/>
<path d="M37.288 9.30458L43.3464 18.6086H38.442L34.5473 12.478L30.6526 18.6086H25.7482L31.8066 9.30458L26.0367 0.361187H30.9411L34.6194 6.27536L38.2256 0.289062H43.1301L37.288 9.30458Z" fill="#282828"/>
<path d="M58.7809 18.6065V0.286968C59.7907 0.286968 62.9641 0.214844 64.4066 0.214844C69.9602 0.214844 71.8354 3.09981 71.8354 6.27327C71.8354 9.51885 69.3111 12.4038 65.0557 12.4038C64.6951 12.4038 63.6854 12.4038 63.0363 12.3317V18.5344H58.7809V18.6065ZM62.9641 4.25379V8.43699C63.5411 8.50912 64.2624 8.58124 64.8394 8.58124C65.9212 8.58124 67.2916 8.07637 67.2916 6.34539C67.2916 4.75866 66.2097 4.25379 64.7672 4.25379C64.2624 4.18167 63.8296 4.18167 62.9641 4.25379Z" fill="#282828"/>
<path d="M96.3579 0C101.911 0 106.095 3.60621 106.095 9.44826C106.095 15.0018 101.911 18.8965 96.3579 18.8965C90.8044 18.8965 86.6212 15.2903 86.6212 9.44826C86.6212 4.1832 90.5159 0 96.3579 0ZM96.3579 15.0018C99.8199 15.0018 101.623 12.5496 101.623 9.44826C101.623 6.13055 99.315 3.8947 96.3579 3.8947C93.3287 3.8947 91.0929 6.05843 91.0929 9.44826C91.0929 12.6217 93.473 15.0018 96.3579 15.0018Z" fill="#282828"/>
<path d="M136.819 16.8049C135.738 18.031 133.357 18.8965 130.833 18.8965C125.135 18.8965 121.241 15.1461 121.241 9.44826C121.241 4.1832 124.486 0 130.833 0C133.285 0 135.305 0.865489 136.459 1.87523L134.584 5.04869C133.574 4.4717 132.564 3.8947 130.833 3.8947C128.02 3.8947 125.712 5.84205 125.712 9.44826C125.712 12.6938 127.948 15.0018 131.266 15.0018C132.564 15.0018 134.007 14.5691 135.233 13.7036L136.819 16.8049Z" fill="#282828"/>
<path d="M158.024 0.289062H161.774L169.347 18.6086H164.876L163.361 14.786H156.148L154.634 18.6086H150.451L158.024 0.289062ZM157.735 10.8192H161.846L159.827 5.62625L157.735 10.8192Z" fill="#282828"/>
<path d="M184.782 18.6065V0.286968C185.791 0.286968 190.48 0.214844 190.984 0.214844C195.961 0.214844 197.764 2.66706 197.764 6.0569C197.764 9.44673 195.672 10.8171 194.663 11.322L200 18.5344H194.951L190.48 12.1153H188.965V18.5344H184.782V18.6065ZM188.965 4.25379V8.29274H190.48C192.066 8.29274 193.365 7.71575 193.365 6.20114C193.365 5.19141 192.86 4.18167 190.84 4.18167C190.191 4.18167 189.83 4.18167 188.965 4.25379Z" fill="#282828"/>
</svg>
