<svg width="50" height="34" viewBox="0 0 50 34" fill="none" xmlns="http://www.w3.org/2000/svg">
<path d="M49.6948 16.1293L34.0698 0.309015C33.6629 -0.103005 33.0037 -0.103005 32.5969 0.309015C32.1899 0.721036 32.1899 1.38846 32.5969 1.80038L46.4437 15.8203H1.0417C0.465918 15.8203 0 16.2921 0 16.8751C0 17.458 0.465918 17.9298 1.0417 17.9298H46.4437L32.5969 31.9496C32.1899 32.3617 32.1899 33.0291 32.5969 33.441C32.8003 33.647 33.0669 33.75 33.3334 33.75C33.5999 33.75 33.8664 33.647 34.0699 33.441L49.6949 17.6207C50.1017 17.2088 50.1017 16.5414 49.6948 16.1293Z" fill="#282828"/>
</svg>
