<svg width="50" height="34" viewBox="0 0 50 34" fill="none" xmlns="http://www.w3.org/2000/svg">
<path d="M0.30521 17.8707L15.9302 33.691C16.3371 34.103 16.9963 34.103 17.4031 33.691C17.8101 33.279 17.8101 32.6115 17.4031 32.1996L3.55628 18.1797L48.9583 18.1797C49.5341 18.1797 50 17.7079 50 17.1249C50 16.542 49.5341 16.0702 48.9583 16.0702L3.55628 16.0702L17.4031 2.05035C17.8101 1.63833 17.8101 0.970913 17.4031 0.55899C17.1997 0.353031 16.9331 0.25 16.6666 0.25C16.4001 0.25 16.1336 0.353031 15.9301 0.55899L0.305111 16.3793C-0.101723 16.7912 -0.101723 17.4586 0.30521 17.8707Z" fill="#282828"/>
</svg>
