<svg width="22" height="13" viewBox="0 0 22 13" fill="none" xmlns="http://www.w3.org/2000/svg">
<path fill-rule="evenodd" clip-rule="evenodd" d="M21.4821 0.902778C21.6453 0.393611 21.4821 0.0234721 20.7602 0.0234721H18.3599C17.7545 0.0234721 17.4749 0.347569 17.3117 0.694236C17.3117 0.694236 16.077 3.65535 14.3527 5.5751C13.7936 6.13031 13.5374 6.31538 13.2344 6.31538C13.0712 6.31538 12.8613 6.13031 12.8613 5.6216V0.878854C12.8613 0.277604 12.6752 0 12.1623 0H8.38751C8.01443 0 7.78159 0.277604 7.78159 0.555208C7.78159 1.13344 8.64372 1.27247 8.73676 2.8916V6.40972C8.73676 7.17302 8.59926 7.3125 8.29401 7.3125C7.47864 7.3125 5.49817 4.32837 4.31017 0.928055C4.07917 0.254583 3.84451 0 3.23859 0H0.815376C0.116417 0 0 0.323646 0 0.670764C0 1.29549 0.815376 4.44122 3.79776 8.60483C5.77822 11.4486 8.59743 12.977 11.1371 12.977C12.6752 12.977 12.8613 12.6299 12.8613 12.0516V9.90031C12.8613 9.20653 13.0011 9.09097 13.4906 9.09097C13.8399 9.09097 14.4691 9.27559 15.8904 10.6406C17.5212 12.2597 17.8008 13 18.7097 13H21.1095C21.8084 13 22.1348 12.6529 21.9482 11.9821C21.7388 11.3114 20.9463 10.34 19.921 9.18351C19.3619 8.53622 18.5231 7.81896 18.2669 7.47184C17.9176 7.00917 18.0107 6.8241 18.2669 6.40792C18.2435 6.40792 21.1796 2.29035 21.4821 0.900972" fill="#282828"/>
</svg>
