<svg width="40" height="5" viewBox="0 0 40 5" fill="none" xmlns="http://www.w3.org/2000/svg">
<g clip-path="url(#clip0_2302_3224)">
<path fill-rule="evenodd" clip-rule="evenodd" d="M1.55628 0.807662H6.48691V0.0078125H0.948393C0.429379 0.0078125 0.00634766 0.427289 0.00634766 0.946303V3.46672C0.00634766 3.98573 0.425824 4.40521 0.944838 4.40521H6.48335V3.60536H1.55628C1.29677 3.60536 1.08703 3.39562 1.08703 3.13611V2.57089H6.09232V1.77104H1.08703V1.27335C1.08703 1.01385 1.29677 0.804107 1.55628 0.804107" fill="#B3B3B3"/>
<path fill-rule="evenodd" clip-rule="evenodd" d="M18.2466 0.811568H23.1772V0.0117188H17.6387C17.1197 0.0117188 16.7002 0.431195 16.7002 0.950209V3.47062C16.7002 3.98964 17.1197 4.40911 17.6387 4.40911H23.1772V3.60926H18.2466C17.9871 3.60926 17.7773 3.39953 17.7773 3.14002V2.57479H22.7826V1.77494H17.7773V1.27726C17.7773 1.01775 17.9871 0.808014 18.2466 0.808014" fill="#B3B3B3"/>
<path fill-rule="evenodd" clip-rule="evenodd" d="M26.5933 0.815475H31.5239V0.015625H25.9854C25.4664 0.015625 25.0469 0.435102 25.0469 0.954115V3.47453C25.0469 3.99354 25.4664 4.41302 25.9854 4.41302H31.5239V3.61317H26.5933C26.3337 3.61317 26.124 3.40343 26.124 3.14393V2.58225H31.1293V1.7824H26.124V1.28827C26.124 1.02877 26.3337 0.81903 26.5933 0.81903" fill="#B3B3B3"/>
<path fill-rule="evenodd" clip-rule="evenodd" d="M38.8113 3.15674C38.8113 3.4198 38.598 3.62954 38.3385 3.62954H34.453V0.80696H38.3385C38.598 0.80696 38.8113 1.02025 38.8113 1.27976V3.15319V3.15674ZM38.95 0H33.3652V4.4365H38.95C39.4725 4.4365 39.8956 4.01347 39.8956 3.4909V0.9456C39.8956 0.423032 39.4725 0 38.95 0Z" fill="#B3B3B3"/>
<path fill-rule="evenodd" clip-rule="evenodd" d="M9.51578 0.046875L15.0792 4.35895H13.6714L8.10449 0.046875H9.51578Z" fill="#B3B3B3"/>
<path fill-rule="evenodd" clip-rule="evenodd" d="M13.6714 0.046875L8.10449 4.35895H9.51578L15.0792 0.046875H13.6714Z" fill="#B3B3B3"/>
</g>
<defs>
<clipPath id="clip0_2302_3224">
<rect width="40" height="4.53333" fill="white"/>
</clipPath>
</defs>
</svg>
